<?xml version="1.0" standalone="no"?>
 <!DOCTYPE svg PUBLIC "-//W3C//DTD SVG 1.1//EN" 
 "http://www.w3.org/Graphics/SVG/1.1/DTD/svg11.dtd"> 
<svg
  xmlns:svg="http://www.w3.org/2000/svg"
  xmlns="http://www.w3.org/2000/svg"
  xmlns:xlink="http://www.w3.org/1999/xlink"
  version="1.1"
  width="34.1376mm" height="34.0360mm" viewBox="0.0000 0.0000 34.1376 34.0360">
<title>SVG Image created as Harjoitustyo22-F_Cu.svg date 2024/11/29 15:30:34 </title>
  <desc>Image generated by PCBNEW </desc>
<g style="fill:#000000; fill-opacity:1.0000;stroke:#000000; stroke-opacity:1.0000;
stroke-linecap:round; stroke-linejoin:round;"
 transform="translate(0 0) scale(1 1)">
<path style="fill:#000000; fill-opacity:1.0000; stroke:none;fill-rule:evenodd;"
d="M 14.1750,9.1000
14.2324,9.1114
14.2811,9.1439
14.3136,9.1926
14.3250,9.2500
14.3250,10.9000
14.3136,10.9574
14.2811,11.0061
14.2324,11.0386
14.1750,11.0500
13.8750,11.0500
13.8176,11.0386
13.7689,11.0061
13.7364,10.9574
13.7250,10.9000
13.7250,9.2500
13.7364,9.1926
13.7689,9.1439
13.8176,9.1114
13.8750,9.1000
Z" /> 
<path style="fill:#000000; fill-opacity:1.0000; stroke:none;fill-rule:evenodd;"
d="M 12.9050,9.1000
12.9624,9.1114
13.0111,9.1439
13.0436,9.1926
13.0550,9.2500
13.0550,10.9000
13.0436,10.9574
13.0111,11.0061
12.9624,11.0386
12.9050,11.0500
12.6050,11.0500
12.5476,11.0386
12.4989,11.0061
12.4664,10.9574
12.4550,10.9000
12.4550,9.2500
12.4664,9.1926
12.4989,9.1439
12.5476,9.1114
12.6050,9.1000
Z" /> 
<path style="fill:#000000; fill-opacity:1.0000; stroke:none;fill-rule:evenodd;"
d="M 11.6350,9.1000
11.6924,9.1114
11.7411,9.1439
11.7736,9.1926
11.7850,9.2500
11.7850,10.9000
11.7736,10.9574
11.7411,11.0061
11.6924,11.0386
11.6350,11.0500
11.3350,11.0500
11.2776,11.0386
11.2289,11.0061
11.1964,10.9574
11.1850,10.9000
11.1850,9.2500
11.1964,9.1926
11.2289,9.1439
11.2776,9.1114
11.3350,9.1000
Z" /> 
<path style="fill:#000000; fill-opacity:1.0000; stroke:none;fill-rule:evenodd;"
d="M 10.3650,9.1000
10.4224,9.1114
10.4711,9.1439
10.5036,9.1926
10.5150,9.2500
10.5150,10.9000
10.5036,10.9574
10.4711,11.0061
10.4224,11.0386
10.3650,11.0500
10.0650,11.0500
10.0076,11.0386
9.9589,11.0061
9.9264,10.9574
9.9150,10.9000
9.9150,9.2500
9.9264,9.1926
9.9589,9.1439
10.0076,9.1114
10.0650,9.1000
Z" /> 
<path style="fill:#000000; fill-opacity:1.0000; stroke:none;fill-rule:evenodd;"
d="M 10.3650,14.0500
10.4224,14.0614
10.4711,14.0939
10.5036,14.1426
10.5150,14.2000
10.5150,15.8500
10.5036,15.9074
10.4711,15.9561
10.4224,15.9886
10.3650,16.0000
10.0650,16.0000
10.0076,15.9886
9.9589,15.9561
9.9264,15.9074
9.9150,15.8500
9.9150,14.2000
9.9264,14.1426
9.9589,14.0939
10.0076,14.0614
10.0650,14.0500
Z" /> 
<path style="fill:#000000; fill-opacity:1.0000; stroke:none;fill-rule:evenodd;"
d="M 11.6350,14.0500
11.6924,14.0614
11.7411,14.0939
11.7736,14.1426
11.7850,14.2000
11.7850,15.8500
11.7736,15.9074
11.7411,15.9561
11.6924,15.9886
11.6350,16.0000
11.3350,16.0000
11.2776,15.9886
11.2289,15.9561
11.1964,15.9074
11.1850,15.8500
11.1850,14.2000
11.1964,14.1426
11.2289,14.0939
11.2776,14.0614
11.3350,14.0500
Z" /> 
<path style="fill:#000000; fill-opacity:1.0000; stroke:none;fill-rule:evenodd;"
d="M 12.9050,14.0500
12.9624,14.0614
13.0111,14.0939
13.0436,14.1426
13.0550,14.2000
13.0550,15.8500
13.0436,15.9074
13.0111,15.9561
12.9624,15.9886
12.9050,16.0000
12.6050,16.0000
12.5476,15.9886
12.4989,15.9561
12.4664,15.9074
12.4550,15.8500
12.4550,14.2000
12.4664,14.1426
12.4989,14.0939
12.5476,14.0614
12.6050,14.0500
Z" /> 
<path style="fill:#000000; fill-opacity:1.0000; stroke:none;fill-rule:evenodd;"
d="M 14.1750,14.0500
14.2324,14.0614
14.2811,14.0939
14.3136,14.1426
14.3250,14.2000
14.3250,15.8500
14.3136,15.9074
14.2811,15.9561
14.2324,15.9886
14.1750,16.0000
13.8750,16.0000
13.8176,15.9886
13.7689,15.9561
13.7364,15.9074
13.7250,15.8500
13.7250,14.2000
13.7364,14.1426
13.7689,14.0939
13.8176,14.0614
13.8750,14.0500
Z" /> 
<path style="fill:#000000; fill-opacity:1.0000; stroke:none;fill-rule:evenodd;"
d="M 11.0250,27.1250
11.0250,27.9250
10.0250,27.9250
10.0250,27.1250
Z" /> 
<path style="fill:#000000; fill-opacity:1.0000; stroke:none;fill-rule:evenodd;"
d="M 11.0250,24.9150
11.0250,25.7150
10.0250,25.7150
10.0250,24.9150
Z" /> 
<path style="fill:#000000; fill-opacity:1.0000; stroke:none;fill-rule:evenodd;"
d="M 3.7250,27.1250
3.7250,27.9250
2.7250,27.9250
2.7250,27.1250
Z" /> 
<path style="fill:#000000; fill-opacity:1.0000; stroke:none;fill-rule:evenodd;"
d="M 3.7250,24.9150
3.7250,25.7150
2.7250,25.7150
2.7250,24.9150
Z" /> 
<path style="fill:#000000; fill-opacity:1.0000; stroke:none;fill-rule:evenodd;"
d="M 9.4750,27.4250
9.4750,28.9250
8.7750,28.9250
8.7750,27.4250
Z" /> 
<path style="fill:#000000; fill-opacity:1.0000; stroke:none;fill-rule:evenodd;"
d="M 6.4750,27.4250
6.4750,28.9250
5.7750,28.9250
5.7750,27.4250
Z" /> 
<path style="fill:#000000; fill-opacity:1.0000; stroke:none;fill-rule:evenodd;"
d="M 4.9750,27.4250
4.9750,28.9250
4.2750,28.9250
4.2750,27.4250
Z" /> 
<path style="fill:#000000; fill-opacity:1.0000; stroke:none;fill-rule:evenodd;"
d="M 23.1250,26.6250
21.9250,26.6250
21.9250,25.4250
23.1250,25.4250
Z" /> 
<path style="fill:#000000; fill-opacity:1.0000; stroke:none;fill-rule:evenodd;"
d="M 24.3250,23.5250
22.7250,23.5250
22.7250,22.0250
24.3250,22.0250
Z" /> 
<path style="fill:#000000; fill-opacity:1.0000; stroke:none;fill-rule:evenodd;"
d="M 25.1250,26.6250
23.9250,26.6250
23.9250,25.4250
25.1250,25.4250
Z" /> 
<path style="fill:#000000; fill-opacity:1.0000; stroke:none;fill-rule:evenodd;"
d="M 19.1500,14.0375
19.2457,14.0565
19.3268,14.1107
19.3810,14.1918
19.4000,14.2875
19.4000,14.9125
19.3810,15.0082
19.3268,15.0893
19.2457,15.1435
19.1500,15.1625
17.9000,15.1625
17.8043,15.1435
17.7232,15.0893
17.6690,15.0082
17.6500,14.9125
17.6500,14.2875
17.6690,14.1918
17.7232,14.1107
17.8043,14.0565
17.9000,14.0375
Z" /> 
<path style="fill:#000000; fill-opacity:1.0000; stroke:none;fill-rule:evenodd;"
d="M 19.1500,16.9625
19.2457,16.9815
19.3268,17.0357
19.3810,17.1168
19.4000,17.2125
19.4000,17.8375
19.3810,17.9332
19.3268,18.0143
19.2457,18.0685
19.1500,18.0875
17.9000,18.0875
17.8043,18.0685
17.7232,18.0143
17.6690,17.9332
17.6500,17.8375
17.6500,17.2125
17.6690,17.1168
17.7232,17.0357
17.8043,16.9815
17.9000,16.9625
Z" /> 
<path style="fill:#000000; fill-opacity:1.0000; stroke:none;fill-rule:evenodd;"
d="M 24.2550,12.3750
22.5550,12.3750
22.5550,10.6750
24.2550,10.6750
Z" /> 
</g>
<g style="fill:#000000; fill-opacity:1.0000; stroke:none;">
<circle cx="25.9450" cy="11.5250" r="0.8500" /> 
<circle cx="28.4850" cy="11.5250" r="0.8500" /> 
<circle cx="31.0250" cy="11.5250" r="0.8500" /> 
<path style="fill:#000000; fill-opacity:1.0000; stroke:none;fill-rule:evenodd;"
d="M 9.1750,17.5000
9.2707,17.5190
9.3518,17.5732
9.4060,17.6543
9.4250,17.7500
9.4250,18.4000
9.4060,18.4957
9.3518,18.5768
9.2707,18.6310
9.1750,18.6500
7.8750,18.6500
7.7793,18.6310
7.6982,18.5768
7.6440,18.4957
7.6250,18.4000
7.6250,17.7500
7.6440,17.6543
7.6982,17.5732
7.7793,17.5190
7.8750,17.5000
Z" /> 
<path style="fill:#000000; fill-opacity:1.0000; stroke:none;fill-rule:evenodd;"
d="M 9.1750,20.4500
9.2707,20.4690
9.3518,20.5232
9.4060,20.6043
9.4250,20.7000
9.4250,21.3500
9.4060,21.4457
9.3518,21.5268
9.2707,21.5810
9.1750,21.6000
7.8750,21.6000
7.7793,21.5810
7.6982,21.5268
7.6440,21.4457
7.6250,21.3500
7.6250,20.7000
7.6440,20.6043
7.6982,20.5232
7.7793,20.4690
7.8750,20.4500
Z" /> 
<path style="fill:#000000; fill-opacity:1.0000; stroke:none;fill-rule:evenodd;"
d="M 14.6750,3.5000
14.7707,3.5190
14.8518,3.5732
14.9060,3.6543
14.9250,3.7500
14.9250,4.4000
14.9060,4.4957
14.8518,4.5768
14.7707,4.6310
14.6750,4.6500
13.3750,4.6500
13.2793,4.6310
13.1982,4.5768
13.1440,4.4957
13.1250,4.4000
13.1250,3.7500
13.1440,3.6543
13.1982,3.5732
13.2793,3.5190
13.3750,3.5000
Z" /> 
<path style="fill:#000000; fill-opacity:1.0000; stroke:none;fill-rule:evenodd;"
d="M 14.6750,6.4500
14.7707,6.4690
14.8518,6.5232
14.9060,6.6043
14.9250,6.7000
14.9250,7.3500
14.9060,7.4457
14.8518,7.5268
14.7707,7.5810
14.6750,7.6000
13.3750,7.6000
13.2793,7.5810
13.1982,7.5268
13.1440,7.4457
13.1250,7.3500
13.1250,6.7000
13.1440,6.6043
13.1982,6.5232
13.2793,6.4690
13.3750,6.4500
Z" /> 
<path style="fill:#000000; fill-opacity:1.0000; stroke:none;fill-rule:evenodd;"
d="M 8.6750,8.0000
8.7707,8.0190
8.8518,8.0732
8.9060,8.1543
8.9250,8.2500
8.9250,8.9000
8.9060,8.9957
8.8518,9.0768
8.7707,9.1310
8.6750,9.1500
7.3750,9.1500
7.2793,9.1310
7.1982,9.0768
7.1440,8.9957
7.1250,8.9000
7.1250,8.2500
7.1440,8.1543
7.1982,8.0732
7.2793,8.0190
7.3750,8.0000
Z" /> 
<path style="fill:#000000; fill-opacity:1.0000; stroke:none;fill-rule:evenodd;"
d="M 8.6750,10.9500
8.7707,10.9690
8.8518,11.0232
8.9060,11.1043
8.9250,11.2000
8.9250,11.8500
8.9060,11.9457
8.8518,12.0268
8.7707,12.0810
8.6750,12.1000
7.3750,12.1000
7.2793,12.0810
7.1982,12.0268
7.1440,11.9457
7.1250,11.8500
7.1250,11.2000
7.1440,11.1043
7.1982,11.0232
7.2793,10.9690
7.3750,10.9500
Z" /> 
</g>
<g style="fill:none; 
stroke:#000000; stroke-width:0.2500; stroke-opacity:1; 
stroke-linecap:round; stroke-linejoin:round;">
<path d="M9.5900 11.0900
L9.5900 14.4000
" />
<path d="M7.1299 10.6250
L9.1250 10.6250
" />
<path d="M9.5900 14.4000
L10.2150 15.0250
" />
<path d="M6.8000 10.9549
L7.1299 10.6250
" />
<path d="M6.8000 12.0250
L6.8000 10.9549
" />
<path d="M9.1250 10.6250
L9.5900 11.0900
" />
<path d="M6.8000 12.0250
L6.8000 9.8000
" />
<path d="M6.8000 12.0951
L6.8000 12.0250
" />
<path d="M6.8093 12.7407
L8.0250 11.5250
" />
<path d="M6.8093 29.2407
L6.8093 12.7407
" />
<path d="M5.4500 30.6000
L6.8093 29.2407
" />
<path d="M0.7136 30.6000
L5.4500 30.6000
" />
<path d="M0.4500 13.7185
L0.4500 30.3364
" />
<path d="M13.5885 0.5800
L0.4500 13.7185
" />
<path d="M0.4500 30.3364
L0.7136 30.6000
" />
<path d="M24.5800 0.5800
L13.5885 0.5800
" />
<path d="M24.5800 12.7000
L24.5800 0.5800
" />
<path d="M14.0250 10.0750
L16.6500 12.7000
" />
<path d="M16.6500 12.7000
L24.5800 12.7000
" />
<path d="M6.1250 28.5750
L6.1250 28.1750
" />
<path d="M5.4500 29.2500
L6.1250 28.5750
" />
<path d="M3.0000 29.2500
L5.4500 29.2500
" />
<path d="M2.4000 28.6500
L3.0000 29.2500
" />
<path d="M0.9000 30.1500
L2.4000 28.6500
" />
<path d="M9.1750 7.6750
L7.1299 7.6750
" />
<path d="M10.2150 10.0750
L10.2150 8.7150
" />
<path d="M10.2150 8.7150
L9.1750 7.6750
" />
<path d="M0.9000 13.9049
L0.9000 30.1500
" />
<path d="M7.1299 7.6750
L0.9000 13.9049
" />
<path d="M7.7000 29.6000
L9.1250 28.1750
" />
<path d="M7.7000 30.2500
L7.7000 29.6000
" />
<path d="M14.2800 17.5250
L18.5250 17.5250
" />
<path d="M12.7550 15.0250
L12.7550 16.0000
" />
<path d="M12.7550 16.0000
L14.2800 17.5250
" />
<path d="M13.4000 14.4000
L14.0250 15.0250
" />
<path d="M13.4000 9.0491
L13.4000 14.4000
" />
<path d="M12.8000 8.4491
L13.4000 9.0491
" />
<path d="M12.8000 6.4549
L12.8000 8.4491
" />
<path d="M13.1299 6.1250
L12.8000 6.4549
" />
<path d="M18.0750 6.1250
L13.1299 6.1250
" />
<path d="M15.1250 3.1750
L18.0750 6.1250
" />
<path d="M13.1299 3.1750
L15.1250 3.1750
" />
<path d="M10.2150 6.0899
L13.1299 3.1750
" />
<path d="M10.2150 10.0750
L10.2150 6.0899
" />
<path d="M11.4850 6.6150
L14.0250 4.0750
" />
<path d="M11.4850 10.0750
L11.4850 6.6150
" />
<path d="M11.4850 15.0250
L11.4850 15.9850
" />
<path d="M19.5250 24.0250
L22.3500 24.0250
" />
<path d="M11.4850 15.9850
L19.5250 24.0250
" />
<path d="M19.5100 24.0250
L19.5250 24.0250
" />
<path d="M11.4850 16.0223
L11.4850 15.0250
" />
<path d="M9.4323 18.0750
L11.4850 16.0223
" />
<path d="M8.5250 18.0750
L9.4323 18.0750
" />
<path d="M24.6500 25.9000
L24.5250 26.0250
" />
<path d="M24.6500 21.7000
L24.6500 25.9000
" />
<path d="M20.4750 17.5250
L24.6500 21.7000
" />
<path d="M18.5250 17.5250
L20.4750 17.5250
" />
<path d="M14.0250 15.0250
L18.0250 15.0250
" />
<path d="M14.4500 14.6000
L18.5250 14.6000
" />
<path d="M14.0250 15.0250
L14.4500 14.6000
" />
<path d="M12.7550 12.7800
L12.7550 10.0750
" />
<path d="M11.4850 14.0500
L12.7550 12.7800
" />
<path d="M11.4850 15.0250
L11.4850 14.0500
" />
<path d="M14.0250 16.0250
L14.0250 15.0250
" />
<path d="M6.8000 9.8000
L8.0250 8.5750
" />
<path d="M10.2150 15.0250
L9.7299 15.0250
" />
<path d="M14.0250 14.2659
L14.0250 15.0250
" />
<path d="M10.2150 10.0750
L10.2150 10.4559
" />
<path d="M22.3500 24.0250
L22.3500 23.9500
" />
<path d="M22.3500 25.7000
L22.3500 24.0250
" />
<path d="M31.0250 21.3750
L31.0250 11.5250
" />
<path d="M22.1500 30.2500
L31.0250 21.3750
" />
<path d="M7.7000 30.2500
L22.1500 30.2500
" />
<path d="M9.1250 28.1750
L9.2000 28.2500
" />
<path d="M14.0250 7.0250
L18.9050 7.0250
" />
<path d="M18.9050 7.0250
L23.4050 11.5250
" />
<path d="M22.3500 23.9500
L23.5250 22.7750
" />
<path style="fill:#000000; fill-opacity:1.0000; stroke:none;fill-rule:evenodd;"
d="M 33.7675,0.2452
33.8133,0.2980
33.8245,0.3495
33.8245,33.7005
33.8048,33.7675
33.7520,33.8133
33.7005,33.8245
0.3495,33.8245
0.2825,33.8048
0.2367,33.7520
0.2255,33.7005
0.2255,30.6595
0.2452,30.5924
0.2980,30.5467
0.3671,30.5367
0.4307,30.5657
0.4372,30.5718
0.5013,30.6359
0.5013,30.6359
0.5525,30.6701
0.6037,30.7043
0.6842,30.7377
0.7175,30.7515
0.7780,30.7635
0.8384,30.7755
0.9616,30.7755
1.0220,30.7635
1.0825,30.7515
1.0825,30.7515
1.0825,30.7515
1.1158,30.7377
1.1158,30.7377
1.1158,30.7377
1.1963,30.7043
1.2475,30.6701
1.2475,30.6701
1.2795,30.6487
1.2987,30.6359
1.3859,30.5487
1.3859,30.5487
1.3961,30.5385
1.3961,30.5385
2.3123,29.6223
2.3736,29.5888
2.4433,29.5938
2.4877,29.6223
2.5110,29.6456
2.5110,29.6456
2.6013,29.7359
2.6013,29.7359
2.6436,29.7641
2.7037,29.8043
2.7842,29.8377
2.8175,29.8515
2.8780,29.8635
2.9384,29.8755
5.5116,29.8755
5.5720,29.8635
5.6325,29.8515
5.6325,29.8515
5.6325,29.8515
5.6658,29.8377
5.6658,29.8377
5.6658,29.8377
5.7463,29.8043
5.8064,29.7641
5.8487,29.7359
5.9359,29.6487
5.9359,29.6487
5.9429,29.6417
5.9429,29.6417
6.1228,29.4618
6.1841,29.4283
6.2105,29.4255
6.5229,29.4255
6.5229,29.4255
6.5825,29.4191
6.7173,29.3688
6.8325,29.2825
6.9188,29.1673
6.9691,29.0325
6.9755,28.9729
6.9755,27.3771
6.9691,27.3175
6.9503,27.2671
6.9188,27.1827
6.9188,27.1827
6.8325,27.0675
6.8325,27.0675
6.7173,26.9812
6.7173,26.9812
6.5825,26.9309
6.5825,26.9309
6.5229,26.9245
6.5229,26.9245
6.5229,26.9245
6.5229,26.9245
6.0489,26.9245
5.9819,26.9048
5.9361,26.8520
5.9262,26.7829
5.9458,26.7316
5.9515,26.7231
6.0005,26.6047
6.0255,26.4791
6.0255,26.3509
6.0255,26.3509
6.0005,26.2253
6.0005,26.2253
6.0005,26.2253
5.9515,26.1069
5.9515,26.1069
5.9515,26.1069
5.8803,26.0003
5.8803,26.0003
5.7897,25.9097
5.7897,25.9097
5.6831,25.8385
5.6831,25.8385
5.5647,25.7895
5.5647,25.7895
5.4391,25.7645
5.4391,25.7645
5.3109,25.7645
5.3109,25.7645
5.1853,25.7895
5.1853,25.7895
5.0669,25.8385
5.0669,25.8385
4.9603,25.9097
4.9603,25.9097
4.8697,26.0003
4.8697,26.0003
4.7985,26.1069
4.7985,26.1069
4.7495,26.2253
4.7495,26.2253
4.7245,26.3509
4.7245,26.3509
4.7245,26.4791
4.7245,26.4791
4.7245,26.4791
4.7495,26.6047
4.7495,26.6047
4.7985,26.7231
4.7985,26.7231
4.8042,26.7316
4.8251,26.7983
4.8066,26.8657
4.7546,26.9124
4.7011,26.9245
4.2622,26.9245
4.1951,26.9048
4.1629,26.8748
4.1056,26.7983
4.0825,26.7675
4.0825,26.7675
4.0825,26.7675
3.9673,26.6812
3.9673,26.6812
3.8325,26.6309
3.8325,26.6309
3.7729,26.6245
3.7729,26.6245
3.7729,26.6245
3.7729,26.6245
2.6771,26.6245
2.6771,26.6245
2.6175,26.6309
2.4827,26.6812
2.4827,26.6812
2.3675,26.7675
2.3675,26.7675
2.2812,26.8827
2.2812,26.8827
2.2309,27.0175
2.2245,27.0771
2.2245,27.0771
2.2245,27.0771
2.2245,27.9628
2.2048,28.0298
2.1520,28.0756
2.1480,28.0774
2.1037,28.0957
2.1037,28.0957
2.0423,28.1367
2.0013,28.1641
2.0013,28.1641
1.7372,28.4282
1.6759,28.4617
1.6062,28.4567
1.5502,28.4149
1.5258,28.3494
1.5255,28.3405
1.5255,24.8671
2.2245,24.8671
2.2245,25.7629
2.2245,25.7629
2.2309,25.8225
2.2812,25.9573
2.2812,25.9573
2.3675,26.0725
2.3675,26.0725
2.4827,26.1588
2.4827,26.1588
2.6175,26.2091
2.6175,26.2091
2.6244,26.2098
2.6771,26.2155
3.7729,26.2155
3.8325,26.2091
3.9673,26.1588
4.0825,26.0725
4.1688,25.9573
4.2191,25.8225
4.2255,25.7629
4.2255,24.8671
9.5245,24.8671
9.5245,25.7629
9.5245,25.7629
9.5309,25.8225
9.5812,25.9573
9.5812,25.9573
9.6675,26.0725
9.6675,26.0725
9.7827,26.1588
9.7827,26.1588
9.9175,26.2091
9.9175,26.2091
9.9244,26.2098
9.9771,26.2155
11.0729,26.2155
11.1325,26.2091
11.2673,26.1588
11.3825,26.0725
11.4688,25.9573
11.5191,25.8225
11.5255,25.7629
11.5255,24.8671
11.5191,24.8075
11.5068,24.7745
11.4688,24.6727
11.4688,24.6727
11.3825,24.5575
11.3825,24.5575
11.2673,24.4712
11.2673,24.4712
11.1325,24.4209
11.1325,24.4209
11.0729,24.4145
11.0729,24.4145
11.0729,24.4145
11.0729,24.4145
9.9771,24.4145
9.9771,24.4145
9.9175,24.4209
9.7827,24.4712
9.7827,24.4712
9.6675,24.5575
9.6675,24.5575
9.5812,24.6727
9.5812,24.6727
9.5309,24.8075
9.5261,24.8520
9.5245,24.8671
9.5245,24.8671
4.2255,24.8671
4.2255,24.8671
4.2191,24.8075
4.2068,24.7745
4.1688,24.6727
4.1688,24.6727
4.0825,24.5575
4.0825,24.5575
3.9673,24.4712
3.9673,24.4712
3.8325,24.4209
3.8325,24.4209
3.7729,24.4145
3.7729,24.4145
3.7729,24.4145
3.7729,24.4145
2.6771,24.4145
2.6771,24.4145
2.6175,24.4209
2.4827,24.4712
2.4827,24.4712
2.3675,24.5575
2.3675,24.5575
2.2812,24.6727
2.2812,24.6727
2.2309,24.8075
2.2261,24.8520
2.2245,24.8671
2.2245,24.8671
1.5255,24.8671
1.5255,21.4000
7.1250,21.4000
7.1355,21.5027
7.1906,21.6691
7.1906,21.6691
7.2827,21.8183
7.4067,21.9423
7.5559,22.0344
7.5559,22.0344
7.7223,22.0895
7.7223,22.0895
7.8250,22.1000
8.2750,22.1000
8.7750,22.1000
9.2250,22.1000
9.2250,22.1000
9.3277,22.0895
9.4941,22.0344
9.4941,22.0344
9.6433,21.9423
9.7673,21.8183
9.8594,21.6691
9.8594,21.6691
9.9145,21.5027
9.9145,21.5027
9.9250,21.4000
9.9250,21.4000
9.9250,21.2750
8.7750,21.2750
8.7750,22.1000
8.2750,22.1000
8.2750,22.1000
8.2750,21.2750
7.1250,21.2750
7.1250,21.4000
1.5255,21.4000
1.5255,20.6500
7.1250,20.6500
7.1250,20.7750
8.2750,20.7750
8.7750,20.7750
9.9250,20.7750
9.9250,20.6500
9.9250,20.6500
9.9145,20.5473
9.8594,20.3809
9.8594,20.3809
9.7673,20.2317
9.6433,20.1077
9.4941,20.0156
9.4941,20.0156
9.3277,19.9605
9.3277,19.9605
9.2250,19.9500
8.7750,19.9500
8.7750,20.7750
8.2750,20.7750
8.2750,19.9500
7.8250,19.9500
7.8250,19.9500
7.7223,19.9605
7.5559,20.0156
7.5559,20.0156
7.4067,20.1077
7.2827,20.2317
7.1906,20.3809
7.1906,20.3809
7.1355,20.5473
7.1355,20.5473
7.1250,20.6500
1.5255,20.6500
1.5255,14.2154
1.5452,14.1483
1.5618,14.1277
5.9628,9.7267
6.0241,9.6932
6.0938,9.6982
6.1498,9.7400
6.1742,9.8055
6.1745,9.8144
6.1745,12.1567
6.1985,12.2775
6.1985,12.2776
6.2457,12.3914
6.2457,12.3914
6.3141,12.4938
6.3141,12.4938
6.4013,12.5810
6.4013,12.5810
6.5037,12.6494
6.5037,12.6494
6.5247,12.6581
6.6175,12.6966
6.6994,12.7128
6.7384,12.7206
6.7384,12.7206
6.7384,12.7206
6.8616,12.7206
6.8616,12.7206
6.9825,12.6966
7.0963,12.6494
7.1537,12.6111
7.2203,12.5902
7.2352,12.5908
7.3250,12.6000
7.7750,12.6000
7.7750,12.6000
7.7750,11.3990
7.7947,11.3320
7.8475,11.2862
7.8990,11.2750
8.1510,11.2750
8.2180,11.2947
8.2638,11.3475
8.2750,11.3990
8.2750,12.6000
8.7250,12.6000
8.7250,12.6000
8.8279,12.5895
8.8966,12.6023
8.9475,12.6501
8.9645,12.7128
8.9645,14.4616
8.9885,14.5824
8.9885,14.5825
9.0357,14.6963
9.0357,14.6963
9.0699,14.7475
9.0699,14.7475
9.1010,14.7941
9.1219,14.8608
9.1196,14.8872
9.1044,14.9634
9.1044,15.0866
9.1284,15.2074
9.1284,15.2075
9.1756,15.3213
9.1756,15.3213
9.2440,15.4237
9.2440,15.4237
9.3312,15.5109
9.3312,15.5109
9.3312,15.5109
9.3594,15.5297
9.4042,15.5833
9.4145,15.6328
9.4145,15.9157
9.4174,15.9526
9.4174,15.9526
9.4633,16.1104
9.4633,16.1104
9.5469,16.2519
9.5469,16.2519
9.6631,16.3681
9.6631,16.3681
9.6631,16.3681
9.8046,16.4517
9.8871,16.4757
9.9460,16.5133
9.9752,16.5768
9.9655,16.6460
9.9402,16.6825
9.5959,17.0268
9.5346,17.0603
9.4692,17.0569
9.4428,17.0481
9.3278,17.0100
9.3278,17.0100
9.2250,16.9995
7.8250,16.9995
7.8250,16.9995
7.7222,17.0100
7.7222,17.0100
7.5557,17.0652
7.5557,17.0652
7.4063,17.1573
7.2823,17.2813
7.1902,17.4307
7.1902,17.4307
7.1350,17.5972
7.1350,17.5972
7.1350,17.5972
7.1245,17.7000
7.1245,18.4500
7.1245,18.4500
7.1350,18.5528
7.1350,18.5528
7.1467,18.5880
7.1902,18.7193
7.2823,18.8687
7.4063,18.9927
7.5557,19.0848
7.7222,19.1400
7.8250,19.1505
9.2250,19.1505
9.3278,19.1400
9.4943,19.0848
9.6437,18.9927
9.7677,18.8687
9.8598,18.7193
9.9150,18.5528
9.9192,18.5121
9.9455,18.4475
9.9548,18.4371
11.4160,16.9759
11.4773,16.9424
11.5470,16.9474
11.5913,16.9759
18.9853,24.3699
19.0007,24.3887
19.0241,24.4237
19.0241,24.4237
19.1113,24.5109
19.1113,24.5109
19.2137,24.5793
19.2137,24.5793
19.2137,24.5793
19.3275,24.6265
19.4484,24.6505
19.4484,24.6505
19.4484,24.6505
19.4634,24.6505
19.4634,24.6505
21.6005,24.6505
21.6675,24.6702
21.7133,24.7230
21.7245,24.7745
21.7245,24.8878
21.7048,24.9549
21.6748,24.9871
21.5675,25.0675
21.4812,25.1827
21.4812,25.1827
21.4309,25.3175
21.4245,25.3771
21.4245,25.3771
21.4245,25.3771
21.4245,26.6729
21.4245,26.6729
21.4309,26.7325
21.4812,26.8673
21.4812,26.8673
21.5675,26.9825
21.5675,26.9825
21.6827,27.0688
21.6827,27.0688
21.8175,27.1191
21.8175,27.1191
21.8244,27.1198
21.8771,27.1255
23.1729,27.1255
23.2325,27.1191
23.3673,27.0688
23.4507,27.0064
23.5162,26.9820
23.5844,26.9968
23.5993,27.0064
23.6783,27.0655
23.6827,27.0688
23.6827,27.0688
23.7050,27.0771
23.8175,27.1191
23.8771,27.1255
24.0905,27.1255
24.1576,27.1452
24.2033,27.1980
24.2133,27.2671
24.1843,27.3307
24.1782,27.3372
21.9272,29.5882
21.8659,29.6217
21.8395,29.6245
9.7190,29.6245
9.6520,29.6048
9.6063,29.5520
9.5963,29.4829
9.6253,29.4193
9.6757,29.3843
9.7173,29.3688
9.7173,29.3688
9.7173,29.3688
9.8325,29.2825
9.9188,29.1673
9.9691,29.0325
9.9755,28.9729
9.9755,28.5495
9.9952,28.4825
10.0480,28.4367
10.0995,28.4255
11.0729,28.4255
11.1325,28.4191
11.2673,28.3688
11.3825,28.2825
11.4688,28.1673
11.5191,28.0325
11.5255,27.9729
11.5255,27.0771
11.5191,27.0175
11.5149,27.0064
11.4688,26.8827
11.4688,26.8827
11.3825,26.7675
11.3825,26.7675
11.2673,26.6812
11.2673,26.6812
11.1325,26.6309
11.1325,26.6309
11.0729,26.6245
11.0729,26.6245
11.0729,26.6245
11.0729,26.6245
9.9771,26.6245
9.9771,26.6245
9.9175,26.6309
9.7827,26.6812
9.7827,26.6812
9.6675,26.7675
9.6675,26.7675
9.6675,26.7675
9.5871,26.8748
9.5312,26.9167
9.4878,26.9245
9.0489,26.9245
8.9819,26.9048
8.9361,26.8520
8.9262,26.7829
8.9458,26.7316
8.9515,26.7231
9.0005,26.6047
9.0255,26.4791
9.0255,26.3509
9.0255,26.3509
9.0005,26.2253
9.0005,26.2253
9.0005,26.2253
8.9515,26.1069
8.9515,26.1069
8.9515,26.1069
8.8803,26.0003
8.8803,26.0003
8.7897,25.9097
8.7897,25.9097
8.6831,25.8385
8.6831,25.8385
8.5647,25.7895
8.5647,25.7895
8.4391,25.7645
8.4391,25.7645
8.3109,25.7645
8.3109,25.7645
8.1853,25.7895
8.1853,25.7895
8.0669,25.8385
8.0669,25.8385
7.9603,25.9097
7.9603,25.9097
7.8697,26.0003
7.8697,26.0003
7.7985,26.1069
7.7985,26.1069
7.7495,26.2253
7.7495,26.2253
7.7245,26.3509
7.7245,26.3509
7.7245,26.4791
7.7245,26.4791
7.7245,26.4791
7.7495,26.6047
7.7495,26.6047
7.7985,26.7231
7.7985,26.7231
7.8697,26.8297
7.8697,26.8297
7.9603,26.9203
7.9603,26.9203
8.0669,26.9915
8.0669,26.9915
8.0669,26.9915
8.1853,27.0405
8.2276,27.0489
8.2895,27.0813
8.3241,27.1420
8.3203,27.2118
8.3196,27.2139
8.2809,27.3175
8.2809,27.3175
8.2745,27.3771
8.2745,27.3771
8.2745,27.3771
8.2745,28.0895
8.2548,28.1566
8.2382,28.1772
7.3013,29.1141
7.2141,29.2013
7.2141,29.2013
7.1457,29.3037
7.1457,29.3037
7.1187,29.3688
7.1187,29.3688
7.0985,29.4175
7.0985,29.4176
7.0745,29.5384
7.0745,30.3116
7.0985,30.4324
7.0985,30.4325
7.1457,30.5463
7.1457,30.5463
7.2141,30.6487
7.2141,30.6487
7.3013,30.7359
7.3013,30.7359
7.4037,30.8043
7.4037,30.8043
7.4037,30.8043
7.5175,30.8515
7.6384,30.8755
7.6384,30.8755
7.6384,30.8755
22.2116,30.8755
22.2720,30.8635
22.3325,30.8515
22.3325,30.8515
22.3325,30.8515
22.3658,30.8377
22.3658,30.8377
22.3658,30.8377
22.4463,30.8043
22.4975,30.7701
22.5487,30.7359
22.6359,30.6487
22.6359,30.6487
22.6461,30.6385
22.6461,30.6385
31.5109,21.7737
31.5793,21.6713
31.5929,21.6384
31.6265,21.5575
31.6505,21.4366
31.6505,12.8002
31.6702,12.7332
31.7034,12.6987
31.8964,12.5635
32.0635,12.3964
32.1990,12.2028
32.2989,11.9887
32.3601,11.7604
32.3807,11.5250
32.3786,11.5017
32.3713,11.4181
32.3601,11.2896
32.2989,11.0613
32.1990,10.8472
32.1937,10.8396
32.0635,10.6536
31.8964,10.4865
31.8964,10.4865
31.7028,10.3510
31.7028,10.3510
31.6471,10.3250
31.4887,10.2511
31.4887,10.2511
31.4887,10.2511
31.2604,10.1899
31.2604,10.1899
31.0250,10.1693
31.0250,10.1693
30.7896,10.1899
30.7896,10.1899
30.5613,10.2511
30.5613,10.2511
30.3472,10.3510
30.3472,10.3510
30.1536,10.4865
29.9865,10.6536
29.8563,10.8396
29.8017,10.8832
29.7322,10.8904
29.6698,10.8589
29.6531,10.8396
29.5231,10.6539
29.5231,10.6539
29.3561,10.4869
29.1626,10.3514
28.9485,10.2516
28.9485,10.2516
28.7350,10.1944
28.7350,11.0920
28.6780,11.0591
28.5508,11.0250
28.4192,11.0250
28.2920,11.0591
28.2350,11.0920
28.2350,10.1944
28.2350,10.1944
28.0215,10.2516
28.0215,10.2516
27.8074,10.3514
27.8074,10.3514
27.6139,10.4869
27.6139,10.4869
27.4469,10.6539
27.4469,10.6539
27.3166,10.8400
27.2620,10.8837
27.1925,10.8908
27.1301,10.8593
27.1134,10.8400
26.9831,10.6539
26.9831,10.6539
26.8161,10.4869
26.6226,10.3514
26.4085,10.2516
26.4085,10.2516
26.1950,10.1944
26.1950,11.0920
26.1380,11.0591
26.0108,11.0250
25.8792,11.0250
25.7520,11.0591
25.6950,11.0920
25.6950,10.1944
25.6950,10.1944
25.4815,10.2516
25.4815,10.2516
25.2674,10.3514
25.2674,10.3514
25.0739,10.4869
24.9519,10.6089
24.8905,10.6424
24.8209,10.6374
24.7649,10.5956
24.7480,10.5646
24.6988,10.4327
24.6988,10.4327
24.6125,10.3175
24.6125,10.3175
24.4973,10.2312
24.4973,10.2312
24.3625,10.1809
24.3625,10.1809
24.3029,10.1745
24.3029,10.1745
24.3029,10.1745
24.3029,10.1745
22.9905,10.1745
22.9234,10.1548
22.9028,10.1382
19.3952,6.6306
19.3952,6.6306
19.3037,6.5391
19.2525,6.5049
19.2013,6.4707
19.2013,6.4707
19.2013,6.4707
19.2013,6.4707
19.1208,6.4373
19.0875,6.4235
19.0774,6.4215
19.0270,6.4115
18.9666,6.3995
18.9666,6.3995
18.9666,6.3995
18.8092,6.3995
18.7422,6.3798
18.6965,6.3270
18.6865,6.2579
18.6876,6.2513
18.6946,6.2163
18.7005,6.1866
18.7005,6.0634
18.6765,5.9425
18.6396,5.8534
18.6293,5.8287
18.5951,5.7775
18.5609,5.7263
18.5609,5.7263
18.4706,5.6360
18.4706,5.6360
15.6152,2.7806
15.6152,2.7806
15.5237,2.6891
15.4725,2.6549
15.4213,2.6207
15.4213,2.6207
15.4213,2.6207
15.3408,2.5873
15.3075,2.5735
15.2974,2.5715
15.2470,2.5615
15.1866,2.5495
15.1866,2.5495
15.1866,2.5495
13.1915,2.5495
13.0683,2.5495
13.0683,2.5495
13.0079,2.5615
12.9702,2.5690
12.9474,2.5735
12.9474,2.5735
12.9141,2.5873
12.8336,2.6207
12.8336,2.6207
12.7312,2.6891
12.7312,2.6891
11.0602,4.3601
9.8163,5.6040
9.8163,5.6040
9.7843,5.6360
9.7291,5.6912
9.7057,5.7263
9.7057,5.7263
9.6607,5.7936
9.6607,5.7936
9.6359,5.8534
9.6359,5.8534
9.6135,5.9074
9.6135,5.9075
9.6135,5.9075
9.6135,5.9075
9.5895,6.0283
9.5895,6.9841
9.5698,7.0511
9.5170,7.0969
9.4479,7.1068
9.4180,7.0986
9.3890,7.0866
9.3890,7.0866
9.3890,7.0866
9.3575,7.0735
9.3574,7.0735
9.2711,7.0564
9.2711,7.0564
9.2366,7.0495
9.2366,7.0495
7.1915,7.0495
7.0683,7.0495
7.0602,7.0511
7.0338,7.0564
7.0338,7.0564
6.9475,7.0735
6.9474,7.0735
6.9159,7.0866
6.9159,7.0866
6.8336,7.1207
6.8336,7.1207
6.7312,7.1891
6.7312,7.1891
3.6150,10.3053
0.5013,13.4190
0.5013,13.4190
0.4506,13.4698
0.4372,13.4831
0.3759,13.5166
0.3062,13.5116
0.2502,13.4698
0.2258,13.4043
0.2255,13.3954
0.2255,0.3495
0.2452,0.2825
0.2980,0.2367
0.3495,0.2255
33.7005,0.2255
Z" /> 
<path style="fill:#000000; fill-opacity:1.0000; stroke:none;fill-rule:evenodd;"
d="M 18.6616,7.6702
18.6822,7.6868
22.0182,11.0228
22.0517,11.0841
22.0545,11.1105
22.0545,12.4229
22.0545,12.4229
22.0609,12.4825
22.1112,12.6173
22.1112,12.6173
22.1975,12.7325
22.1975,12.7325
22.3127,12.8188
22.3127,12.8188
22.4475,12.8691
22.4475,12.8691
22.4544,12.8698
22.5071,12.8755
24.3029,12.8755
24.3625,12.8691
24.4973,12.8188
24.6125,12.7325
24.6988,12.6173
24.7480,12.4854
24.7899,12.4295
24.8553,12.4050
24.9236,12.4199
24.9519,12.4411
25.0739,12.5631
25.2674,12.6986
25.4815,12.7984
25.4815,12.7984
25.6950,12.8556
25.6950,11.9580
25.7520,11.9909
25.8792,12.0250
26.0108,12.0250
26.1380,11.9909
26.1950,11.9580
26.1950,12.8556
26.4085,12.7984
26.4085,12.7984
26.6226,12.6986
26.8161,12.5631
26.9831,12.3961
27.1134,12.2100
27.1680,12.1663
27.2375,12.1592
27.2999,12.1907
27.3166,12.2100
27.4469,12.3961
27.6139,12.5631
27.8074,12.6986
28.0215,12.7984
28.0215,12.7984
28.2350,12.8556
28.2350,11.9580
28.2920,11.9909
28.4192,12.0250
28.5508,12.0250
28.6780,11.9909
28.7350,11.9580
28.7350,12.8556
28.9485,12.7984
28.9485,12.7984
29.1626,12.6986
29.3561,12.5631
29.5231,12.3961
29.6531,12.2104
29.7077,12.1668
29.7772,12.1596
29.8395,12.1911
29.8563,12.2104
29.9865,12.3964
30.1536,12.5635
30.3466,12.6987
30.3902,12.7532
30.3995,12.8002
30.3995,21.0645
30.3798,21.1316
30.3632,21.1522
25.8372,25.6782
25.7759,25.7117
25.7062,25.7067
25.6502,25.6649
25.6258,25.5994
25.6255,25.5905
25.6255,25.3771
25.6255,25.3771
25.6255,25.3771
25.6191,25.3175
25.5688,25.1827
25.5688,25.1827
25.5688,25.1827
25.4825,25.0675
25.4825,25.0675
25.3673,24.9812
25.3673,24.9812
25.3673,24.9812
25.3562,24.9770
25.3002,24.9352
25.2758,24.8697
25.2755,24.8609
25.2755,21.7677
25.2755,21.7677
25.2755,21.6384
25.2573,21.5471
25.2515,21.5175
25.2043,21.4037
25.1359,21.3013
25.1359,21.3013
20.9679,17.1333
20.9679,17.1333
20.9679,17.1333
20.9609,17.1263
20.9609,17.1263
20.8737,17.0391
20.8737,17.0391
20.8737,17.0391
20.8144,16.9995
20.7791,16.9759
20.7713,16.9707
20.6908,16.9373
20.6575,16.9235
20.6474,16.9215
20.5970,16.9115
20.5366,16.8995
20.5366,16.8995
20.5366,16.8995
19.9079,16.8995
19.8409,16.8798
19.8024,16.8406
19.7427,16.7438
19.6187,16.6198
19.4693,16.5277
19.3028,16.4725
19.3028,16.4725
19.2000,16.4620
17.8500,16.4620
17.8500,16.4620
17.7472,16.4725
17.7472,16.4725
17.5807,16.5277
17.5807,16.5277
17.4313,16.6198
17.3073,16.7438
17.2476,16.8406
17.1957,16.8873
17.1421,16.8995
14.5905,16.8995
14.5234,16.8798
14.5028,16.8632
14.3668,16.7272
14.3333,16.6658
14.3382,16.5961
14.3801,16.5402
14.3855,16.5364
14.4237,16.5109
14.5109,16.4237
14.5135,16.4197
14.5535,16.3819
14.5769,16.3681
14.6931,16.2519
14.7767,16.1104
14.8226,15.9526
14.8255,15.9157
14.8255,15.7745
14.8452,15.7075
14.8980,15.6617
14.9495,15.6505
17.7247,15.6505
17.7404,15.6522
17.7405,15.6518
17.7472,15.6525
17.7472,15.6525
17.8500,15.6630
19.2000,15.6630
19.3028,15.6525
19.4693,15.5973
19.6187,15.5052
19.7427,15.3812
19.8348,15.2318
19.8900,15.0653
19.9005,14.9625
19.9005,14.2375
19.8900,14.1347
19.8348,13.9682
19.7427,13.8188
19.6187,13.6948
19.4693,13.6027
19.3028,13.5475
19.3028,13.5475
19.2000,13.5370
17.8500,13.5370
17.8500,13.5370
17.7472,13.5475
17.7472,13.5475
17.5807,13.6027
17.5807,13.6027
17.4313,13.6948
17.3073,13.8188
17.3073,13.8188
17.2488,13.9136
17.2476,13.9156
17.1957,13.9623
17.1421,13.9745
14.8681,13.9745
14.8011,13.9548
14.7614,13.9136
14.6931,13.7981
14.6931,13.7981
14.6931,13.7981
14.6931,13.7981
14.5769,13.6819
14.5769,13.6819
14.4429,13.6027
14.4354,13.5983
14.4354,13.5983
14.4354,13.5983
14.4354,13.5983
14.2776,13.5524
14.2776,13.5524
14.2407,13.5495
14.2407,13.5495
14.1495,13.5495
14.0825,13.5298
14.0367,13.4770
14.0255,13.4255
14.0255,11.6740
14.0452,11.6070
14.0980,11.5612
14.1495,11.5500
14.2406,11.5500
14.2406,11.5500
14.2775,11.5471
14.2775,11.5471
14.4352,11.5013
14.4352,11.5013
14.5766,11.4177
14.5766,11.4177
14.6927,11.3016
14.6927,11.3016
14.7763,11.1602
14.7763,11.1602
14.8221,11.0025
14.8221,11.0025
14.8250,10.9656
14.8250,10.9656
14.8250,10.3250
14.1495,10.3250
14.0825,10.3053
14.0367,10.2525
14.0255,10.2010
14.0255,9.8250
14.2750,9.8250
14.8250,9.8250
14.8250,9.1844
14.8250,9.1844
14.8221,9.1475
14.8221,9.1475
14.7763,8.9898
14.7763,8.9898
14.6927,8.8484
14.6927,8.8484
14.5766,8.7323
14.5766,8.7323
14.4352,8.6487
14.4352,8.6487
14.2775,8.6029
14.2775,8.6029
14.2750,8.6027
14.2750,9.8250
14.0255,9.8250
14.0255,8.9875
14.0228,8.9737
14.0228,8.9737
14.0180,8.9500
14.0015,8.8666
13.9937,8.8478
13.9780,8.8101
13.9642,8.7766
13.9642,8.7766
13.9543,8.7528
13.9543,8.7528
13.9201,8.7016
13.8859,8.6504
13.8859,8.6504
13.7956,8.5601
13.7956,8.5601
13.5477,8.3122
13.5142,8.2509
13.5192,8.1812
13.5610,8.1252
13.6265,8.1008
13.6354,8.1005
14.7250,8.1005
14.7250,8.1005
14.8278,8.0900
14.9943,8.0348
15.1437,7.9427
15.2677,7.8187
15.3351,7.7094
15.3870,7.6627
15.4406,7.6505
18.5945,7.6505
Z" /> 
<path style="fill:#000000; fill-opacity:1.0000; stroke:none;fill-rule:evenodd;"
d="M 28.0191,11.3320
27.9850,11.4592
27.9850,11.5908
28.0191,11.7180
28.0520,11.7750
26.3780,11.7750
26.4109,11.7180
26.4450,11.5908
26.4450,11.4592
26.4109,11.3320
26.3780,11.2750
28.0520,11.2750
Z" /> 
</g>
<g style="fill:#FFFFFF; fill-opacity:1.0000; stroke:none;">
<circle cx="8.3750" cy="26.4150" r="0.4500" /> 
</g>
<g style="fill:#FFFFFF; fill-opacity:1.0000; stroke:none;">
<circle cx="5.3750" cy="26.4150" r="0.4500" /> 
</g>
<g style="fill:#FFFFFF; fill-opacity:1.0000; stroke:none;">
<circle cx="23.4050" cy="11.5250" r="0.5000" /> 
</g>
<g style="fill:#FFFFFF; fill-opacity:1.0000; stroke:none;">
<circle cx="25.9450" cy="11.5250" r="0.5000" /> 
</g>
<g style="fill:#FFFFFF; fill-opacity:1.0000; stroke:none;">
<circle cx="28.4850" cy="11.5250" r="0.5000" /> 
</g>
<g style="fill:#FFFFFF; fill-opacity:1.0000; stroke:none;">
<circle cx="31.0250" cy="11.5250" r="0.5000" /> 
</g> 
</svg>
